<svg xmlns="http://www.w3.org/2000/svg"  viewBox="0 0 30 30" width="50px" height="50px"><path d="M 8 3 C 5.2504839 3 3 5.2504839 3 8 L 3 21 C 3 23.749516 5.2504839 26 8 26 L 26 26 A 1.0001 1.0001 0 0 0 27 25 L 27 7 A 1.0001 1.0001 0 0 0 26 6 L 9 6 L 9 4 A 1.0001 1.0001 0 0 0 8 3 z M 9 8 L 25 8 L 25 24 L 8 24 C 6.3315161 24 5 22.668484 5 21 C 5 19.331516 6.3315161 18 8 18 A 1.0001 1.0001 0 0 0 9 17 L 9 8 z M 18 10 L 19.792969 11.792969 L 17 14.585938 L 14.707031 12.292969 A 1.0001 1.0001 0 0 0 13.292969 12.292969 L 11.292969 14.292969 A 1.0001 1.0001 0 1 0 12.707031 15.707031 L 14 14.414062 L 16.292969 16.707031 A 1.0001 1.0001 0 0 0 17.707031 16.707031 L 21.207031 13.207031 L 23 15 L 23 10 L 18 10 z M 12 19 A 1.0001 1.0001 0 1 0 12 21 L 22 21 A 1.0001 1.0001 0 1 0 22 19 L 12 19 z"/></svg>