<svg xmlns="http://www.w3.org/2000/svg"  viewBox="0 0 64 64" width="50px" height="50px"><path d="M 21.65625 4 C 20.320313 4 19.066406 4.519531 18.121094 5.464844 L 9.464844 14.121094 C 8.519531 15.066406 8 16.320313 8 17.65625 L 8 57 C 8 58.652344 9.347656 60 11 60 L 51 60 C 52.652344 60 54 58.652344 54 57 L 54 7 C 54 5.347656 52.652344 4 51 4 Z M 22 6 L 51 6 C 51.550781 6 52 6.449219 52 7 L 52 57 C 52 57.550781 51.550781 58 51 58 L 11 58 C 10.449219 58 10 57.550781 10 57 L 10 18 L 19 18 C 20.652344 18 22 16.652344 22 15 Z M 20 6.5 L 20 15 C 20 15.550781 19.550781 16 19 16 L 10.5 16 C 10.605469 15.835938 10.734375 15.679688 10.878906 15.535156 L 19.535156 6.878906 C 19.679688 6.738281 19.835938 6.613281 20 6.5 Z M 18 22 C 16.898438 22 16 22.898438 16 24 L 16 26 C 16 27.101563 16.898438 28 18 28 L 44 28 C 45.101563 28 46 27.101563 46 26 L 46 24 C 46 22.898438 45.101563 22 44 22 Z M 18 24 L 44 24 L 44 26 L 18 26 Z M 19 31 C 17.894531 31 17 31.894531 17 33 C 17 34.105469 17.894531 35 19 35 C 20.105469 35 21 34.105469 21 33 C 21 31.894531 20.105469 31 19 31 Z M 25 32 C 24.449219 32 24 32.449219 24 33 C 24 33.550781 24.449219 34 25 34 L 39 34 C 39.550781 34 40 33.550781 40 33 C 40 32.449219 39.550781 32 39 32 Z M 19 37 C 17.894531 37 17 37.894531 17 39 C 17 40.105469 17.894531 41 19 41 C 20.105469 41 21 40.105469 21 39 C 21 37.894531 20.105469 37 19 37 Z M 25 38 C 24.449219 38 24 38.449219 24 39 C 24 39.550781 24.449219 40 25 40 L 37 40 C 37.550781 40 38 39.550781 38 39 C 38 38.449219 37.550781 38 37 38 Z M 41 38 C 40.449219 38 40 38.449219 40 39 C 40 39.550781 40.449219 40 41 40 L 45 40 C 45.550781 40 46 39.550781 46 39 C 46 38.449219 45.550781 38 45 38 Z M 19 43 C 17.894531 43 17 43.894531 17 45 C 17 46.105469 17.894531 47 19 47 C 20.105469 47 21 46.105469 21 45 C 21 43.894531 20.105469 43 19 43 Z M 25 44 C 24.449219 44 24 44.449219 24 45 C 24 45.550781 24.449219 46 25 46 L 41 46 C 41.550781 46 42 45.550781 42 45 C 42 44.449219 41.550781 44 41 44 Z M 13 52 C 12.449219 52 12 52.449219 12 53 L 12 55 C 12 55.550781 12.449219 56 13 56 C 13.550781 56 14 55.550781 14 55 L 14 53 C 14 52.449219 13.550781 52 13 52 Z M 18 52 C 17.449219 52 17 52.449219 17 53 L 17 55 C 17 55.550781 17.449219 56 18 56 C 18.550781 56 19 55.550781 19 55 L 19 53 C 19 52.449219 18.550781 52 18 52 Z M 23 52 C 22.449219 52 22 52.449219 22 53 L 22 55 C 22 55.550781 22.449219 56 23 56 C 23.550781 56 24 55.550781 24 55 L 24 53 C 24 52.449219 23.550781 52 23 52 Z M 28 52 C 27.449219 52 27 52.449219 27 53 L 27 55 C 27 55.550781 27.449219 56 28 56 C 28.550781 56 29 55.550781 29 55 L 29 53 C 29 52.449219 28.550781 52 28 52 Z M 33 52 C 32.449219 52 32 52.449219 32 53 L 32 55 C 32 55.550781 32.449219 56 33 56 C 33.550781 56 34 55.550781 34 55 L 34 53 C 34 52.449219 33.550781 52 33 52 Z M 38 52 C 37.449219 52 37 52.449219 37 53 L 37 55 C 37 55.550781 37.449219 56 38 56 C 38.550781 56 39 55.550781 39 55 L 39 53 C 39 52.449219 38.550781 52 38 52 Z M 43 52 C 42.449219 52 42 52.449219 42 53 L 42 55 C 42 55.550781 42.449219 56 43 56 C 43.550781 56 44 55.550781 44 55 L 44 53 C 44 52.449219 43.550781 52 43 52 Z M 48 52 C 47.449219 52 47 52.449219 47 53 L 47 55 C 47 55.550781 47.449219 56 48 56 C 48.550781 56 49 55.550781 49 55 L 49 53 C 49 52.449219 48.550781 52 48 52 Z"/></svg>