<?xml version="1.0"?><svg xmlns="http://www.w3.org/2000/svg"  viewBox="0 0 64 64" width="50px" height="50px">    <path d="M 9 6 C 7.346 6 6 7.346 6 9 L 6 55 C 6 56.654 7.346 58 9 58 L 55 58 C 56.654 58 58 56.654 58 54.875 L 58 8.875 C 58 7.346 56.654 6 55 6 L 9 6 z M 9 8 L 55 8 C 55.551 8 56 8.448 56 9 L 56 55 C 56 55.552 55.551 56 55 56 L 9 56 C 8.449 56 8 55.552 8 55 L 8 9 C 8 8.448 8.449 8 9 8 z M 30 11 C 29.533 11 29.129391 11.322344 29.025391 11.777344 L 28.15625 15.59375 C 27.39025 15.82975 26.650359 16.135813 25.943359 16.507812 L 22.632812 14.425781 C 22.238813 14.179781 21.723578 14.233453 21.392578 14.564453 L 18.564453 17.392578 C 18.234453 17.722578 18.177781 18.237813 18.425781 18.632812 L 20.507812 21.943359 C 20.135812 22.650359 19.82975 23.39025 19.59375 24.15625 L 15.777344 25.025391 C 15.322344 25.129391 15 25.533 15 26 L 15 30 C 15 30.467 15.322344 30.870609 15.777344 30.974609 L 19.59375 31.84375 C 19.82975 32.60975 20.135813 33.349641 20.507812 34.056641 L 18.425781 37.367188 C 18.177781 37.761188 18.234453 38.277422 18.564453 38.607422 L 21.392578 41.435547 C 21.723578 41.765547 22.237813 41.820219 22.632812 41.574219 L 25.943359 39.492188 C 26.650359 39.864187 27.39025 40.17025 28.15625 40.40625 L 29.025391 44.222656 C 29.129391 44.677656 29.533 45 30 45 L 34 45 C 34.467 45 34.870609 44.677656 34.974609 44.222656 L 35.84375 40.40625 C 36.60975 40.17025 37.349641 39.864187 38.056641 39.492188 L 41.367188 41.574219 C 41.761188 41.820219 42.276422 41.765547 42.607422 41.435547 L 45.435547 38.607422 C 45.765547 38.277422 45.822219 37.762188 45.574219 37.367188 L 43.492188 34.056641 C 43.864188 33.349641 44.17025 32.60975 44.40625 31.84375 L 48.222656 30.974609 C 48.677656 30.870609 49 30.467 49 30 L 49 26 C 49 25.533 48.677656 25.129391 48.222656 25.025391 L 44.40625 24.15625 C 44.17025 23.39025 43.864187 22.650359 43.492188 21.943359 L 45.574219 18.632812 C 45.822219 18.238812 45.765547 17.722578 45.435547 17.392578 L 42.607422 14.564453 C 42.276422 14.233453 41.762188 14.179781 41.367188 14.425781 L 38.056641 16.507812 C 37.349641 16.135812 36.60975 15.82975 35.84375 15.59375 L 34.974609 11.777344 C 34.870609 11.322344 34.467 11 34 11 L 30 11 z M 30.798828 13 L 33.201172 13 L 34.025391 16.615234 C 34.108391 16.980234 34.389953 17.269281 34.751953 17.363281 C 35.747953 17.620281 36.699078 18.013203 37.580078 18.533203 C 37.901078 18.723203 38.304141 18.716578 38.619141 18.517578 L 41.757812 16.544922 L 43.457031 18.242188 L 41.482422 21.380859 C 41.282422 21.696859 41.27875 22.099875 41.46875 22.421875 C 41.98875 23.302875 42.381672 24.254 42.638672 25.25 C 42.732672 25.613 43.019766 25.891609 43.384766 25.974609 L 47 26.798828 L 47 29.201172 L 43.384766 30.025391 C 43.019766 30.108391 42.730719 30.389953 42.636719 30.751953 C 42.379719 31.747953 41.986797 32.699078 41.466797 33.580078 C 41.276797 33.902078 41.283422 34.303141 41.482422 34.619141 L 43.455078 37.757812 L 41.757812 39.457031 L 38.619141 37.482422 C 38.303141 37.283422 37.898125 37.27875 37.578125 37.46875 C 36.697125 37.98875 35.746 38.381672 34.75 38.638672 C 34.387 38.732672 34.108391 39.019766 34.025391 39.384766 L 33.201172 43 L 30.798828 43 L 29.974609 39.384766 C 29.891609 39.019766 29.610047 38.730719 29.248047 38.636719 C 28.252047 38.379719 27.300922 37.986797 26.419922 37.466797 C 26.099922 37.276797 25.697859 37.285422 25.380859 37.482422 L 22.242188 39.455078 L 20.542969 37.757812 L 22.517578 34.619141 C 22.717578 34.303141 22.72125 33.900125 22.53125 33.578125 C 22.01125 32.697125 21.618328 31.746 21.361328 30.75 C 21.267328 30.387 20.980234 30.108391 20.615234 30.025391 L 17 29.201172 L 17 26.798828 L 20.615234 25.974609 C 20.980234 25.891609 21.269281 25.610047 21.363281 25.248047 C 21.620281 24.252047 22.013203 23.300922 22.533203 22.419922 C 22.723203 22.097922 22.716578 21.696859 22.517578 21.380859 L 20.544922 18.242188 L 22.242188 16.542969 L 25.380859 18.517578 C 25.696859 18.717578 26.101875 18.72025 26.421875 18.53125 C 27.302875 18.01125 28.254 17.618328 29.25 17.361328 C 29.613 17.267328 29.891609 16.980234 29.974609 16.615234 L 30.798828 13 z M 32 19 C 27.037 19 23 23.037 23 28 C 23 32.963 27.037 37 32 37 C 36.963 37 41 32.963 41 28 C 41 27.634 40.975828 27.252141 40.923828 26.869141 C 40.852828 26.321141 40.351734 25.931766 39.802734 26.009766 C 39.254734 26.080766 38.869406 26.583859 38.941406 27.130859 C 38.979406 27.415859 39 27.704 39 28 C 39 31.859 35.859 35 32 35 C 28.141 35 25 31.859 25 28 C 25 24.141 28.141 21 32 21 C 32.298 21 32.589953 21.024547 32.876953 21.060547 C 33.425953 21.125547 33.923187 20.741359 33.992188 20.193359 C 34.061188 19.645359 33.671047 19.144172 33.123047 19.076172 C 32.702047 19.023172 32.347 19 32 19 z M 36.892578 20.779297 C 36.638203 20.806797 36.394203 20.930984 36.220703 21.146484 C 35.874703 21.576484 35.942047 22.206734 36.373047 22.552734 C 36.790047 22.886734 37.155984 23.248953 37.458984 23.626953 C 37.656984 23.872953 37.947234 24 38.240234 24 C 38.460234 24 38.680234 23.92825 38.865234 23.78125 C 39.295234 23.43625 39.365531 22.806 39.019531 22.375 C 38.624531 21.884 38.156953 21.418187 37.626953 20.992188 C 37.411953 20.820688 37.146953 20.751797 36.892578 20.779297 z M 32 23 C 29.243 23 27 25.243 27 28 C 27 30.757 29.243 33 32 33 C 34.757 33 37 30.757 37 28 C 37 25.243 34.757 23 32 23 z M 32 25 C 33.654 25 35 26.346 35 28 C 35 29.654 33.654 31 32 31 C 30.346 31 29 29.654 29 28 C 29 26.346 30.346 25 32 25 z M 32 27 A 1 1 0 0 0 31 28 A 1 1 0 0 0 32 29 A 1 1 0 0 0 33 28 A 1 1 0 0 0 32 27 z M 12 49 C 11.448 49 11 49.447 11 50 L 11 52 C 11 52.553 11.448 53 12 53 C 12.552 53 13 52.553 13 52 L 13 50 C 13 49.447 12.552 49 12 49 z M 17 49 C 16.448 49 16 49.447 16 50 L 16 52 C 16 52.553 16.448 53 17 53 C 17.552 53 18 52.553 18 52 L 18 50 C 18 49.447 17.552 49 17 49 z M 22 49 C 21.448 49 21 49.447 21 50 L 21 52 C 21 52.553 21.448 53 22 53 C 22.552 53 23 52.553 23 52 L 23 50 C 23 49.447 22.552 49 22 49 z M 27 49 C 26.448 49 26 49.447 26 50 L 26 52 C 26 52.553 26.448 53 27 53 C 27.552 53 28 52.553 28 52 L 28 50 C 28 49.447 27.552 49 27 49 z M 32 49 C 31.448 49 31 49.447 31 50 L 31 52 C 31 52.553 31.448 53 32 53 C 32.552 53 33 52.553 33 52 L 33 50 C 33 49.447 32.552 49 32 49 z M 37 49 C 36.448 49 36 49.447 36 50 L 36 52 C 36 52.553 36.448 53 37 53 C 37.552 53 38 52.553 38 52 L 38 50 C 38 49.447 37.552 49 37 49 z M 42 49 C 41.448 49 41 49.447 41 50 L 41 52 C 41 52.553 41.448 53 42 53 C 42.552 53 43 52.553 43 52 L 43 50 C 43 49.447 42.552 49 42 49 z M 47 49 C 46.448 49 46 49.447 46 50 L 46 52 C 46 52.553 46.448 53 47 53 C 47.552 53 48 52.553 48 52 L 48 50 C 48 49.447 47.552 49 47 49 z M 52 49 C 51.448 49 51 49.447 51 50 L 51 52 C 51 52.553 51.448 53 52 53 C 52.552 53 53 52.553 53 52 L 53 50 C 53 49.447 52.552 49 52 49 z"/></svg>