<svg xmlns="http://www.w3.org/2000/svg"  viewBox="0 0 64 64" width="50px" height="50px"><path d="M 7 8 C 5.347656 8 4 9.347656 4 11 L 4 53 C 4 54.652344 5.347656 56 7 56 L 57 56 C 58.652344 56 60 54.652344 60 53 L 60 11 C 60 9.347656 58.652344 8 57 8 Z M 7 10 L 57 10 C 57.550781 10 58 10.449219 58 11 L 58 53 C 58 53.550781 57.550781 54 57 54 L 7 54 C 6.449219 54 6 53.550781 6 53 L 6 20 L 47 20 C 47.550781 20 48 19.554688 48 19 C 48 18.445313 47.550781 18 47 18 L 6 18 L 6 11 C 6 10.449219 6.449219 10 7 10 Z M 10 12 C 9.449219 12 9 12.445313 9 13 L 9 15 C 9 15.554688 9.449219 16 10 16 C 10.550781 16 11 15.554688 11 15 L 11 13 C 11 12.445313 10.550781 12 10 12 Z M 15 12 C 14.449219 12 14 12.445313 14 13 L 14 15 C 14 15.554688 14.449219 16 15 16 C 15.550781 16 16 15.554688 16 15 L 16 13 C 16 12.445313 15.550781 12 15 12 Z M 20 12 C 19.449219 12 19 12.445313 19 13 L 19 15 C 19 15.554688 19.449219 16 20 16 C 20.550781 16 21 15.554688 21 15 L 21 13 C 21 12.445313 20.550781 12 20 12 Z M 25 12 C 24.449219 12 24 12.445313 24 13 L 24 15 C 24 15.554688 24.449219 16 25 16 C 25.550781 16 26 15.554688 26 15 L 26 13 C 26 12.445313 25.550781 12 25 12 Z M 30 12 C 29.449219 12 29 12.445313 29 13 L 29 15 C 29 15.554688 29.449219 16 30 16 C 30.550781 16 31 15.554688 31 15 L 31 13 C 31 12.445313 30.550781 12 30 12 Z M 35 12 C 34.449219 12 34 12.445313 34 13 L 34 15 C 34 15.554688 34.449219 16 35 16 C 35.550781 16 36 15.554688 36 15 L 36 13 C 36 12.445313 35.550781 12 35 12 Z M 40 12 C 39.449219 12 39 12.445313 39 13 L 39 15 C 39 15.554688 39.449219 16 40 16 C 40.550781 16 41 15.554688 41 15 L 41 13 C 41 12.445313 40.550781 12 40 12 Z M 45 12 C 44.449219 12 44 12.445313 44 13 L 44 15 C 44 15.554688 44.449219 16 45 16 C 45.550781 16 46 15.554688 46 15 L 46 13 C 46 12.445313 45.550781 12 45 12 Z M 50 12 C 49.449219 12 49 12.445313 49 13 L 49 15 C 49 15.554688 49.449219 16 50 16 C 50.550781 16 51 15.554688 51 15 L 51 13 C 51 12.445313 50.550781 12 50 12 Z M 55 12 C 54.449219 12 54 12.445313 54 13 L 54 15 C 54 15.554688 54.449219 16 55 16 C 55.550781 16 56 15.554688 56 15 L 56 13 C 56 12.445313 55.550781 12 55 12 Z M 51 18 C 50.449219 18 50 18.445313 50 19 C 50 19.554688 50.449219 20 51 20 L 55 20 C 55.550781 20 56 19.554688 56 19 C 56 18.445313 55.550781 18 55 18 Z M 31 24 C 30.449219 24 30 24.445313 30 25 L 30 40 L 26 40 L 26 37 C 26 36.445313 25.550781 36 25 36 L 19 36 C 18.449219 36 18 36.445313 18 37 L 18 48 L 13 48 C 12.449219 48 12 48.445313 12 49 C 12 49.554688 12.449219 50 13 50 L 49 50 C 49.550781 50 50 49.554688 50 49 C 50 48.445313 49.550781 48 49 48 L 44 48 L 44 31 C 44 30.445313 43.550781 30 43 30 L 38 30 L 38 25 C 38 24.445313 37.550781 24 37 24 Z M 32 26 L 36 26 L 36 48 L 32 48 Z M 38 32 L 42 32 L 42 48 L 38 48 Z M 20 38 L 24 38 L 24 48 L 20 48 Z M 26 42 L 30 42 L 30 48 L 26 48 Z"/></svg>