<svg xmlns="http://www.w3.org/2000/svg"  viewBox="0 0 80 80" width="50px" height="50px"><path d="M 15 8 C 10.593562 8 7 11.593562 7 16 L 7 58 C 7 62.406438 10.593562 66 15 66 L 73 66 L 73 16 L 23 16 C 23 11.593562 19.406438 8 15 8 z M 15 10 C 18.325562 10 21 12.674438 21 16 L 21 52.728516 C 19.532053 51.06033 17.387966 50 15 50 C 12.612034 50 10.467947 51.06033 9 52.728516 L 9 16 C 9 12.674438 11.674438 10 15 10 z M 13 13 A 1 1 0 0 0 12 14 A 1 1 0 0 0 13 15 A 1 1 0 0 0 14 14 A 1 1 0 0 0 13 13 z M 13 17 A 1 1 0 0 0 12 18 A 1 1 0 0 0 13 19 A 1 1 0 0 0 14 18 A 1 1 0 0 0 13 17 z M 23 18 L 71 18 L 71 64 L 15 64 C 11.674438 64 9 61.325562 9 58 C 9 54.674438 11.674438 52 15 52 C 18.325562 52 21 54.674438 21 58 L 23 58 L 23 18 z M 65.941406 20 A 1 1 0 0 0 64.941406 21 A 1 1 0 0 0 65.941406 22 A 1 1 0 0 0 66.941406 21 A 1 1 0 0 0 65.941406 20 z M 13 21 A 1 1 0 0 0 12 22 A 1 1 0 0 0 13 23 A 1 1 0 0 0 14 22 A 1 1 0 0 0 13 21 z M 65.941406 24 A 1 1 0 0 0 64.941406 25 A 1 1 0 0 0 65.941406 26 A 1 1 0 0 0 66.941406 25 A 1 1 0 0 0 65.941406 24 z M 13 25 A 1 1 0 0 0 12 26 A 1 1 0 0 0 13 27 A 1 1 0 0 0 14 26 A 1 1 0 0 0 13 25 z M 50 27 L 50 29 L 55.585938 29 L 46 38.585938 L 39 31.585938 L 29.292969 41.292969 L 30.707031 42.707031 L 39 34.414062 L 46 41.414062 L 57 30.414062 L 57 36 L 59 36 L 59 27 L 50 27 z M 65.941406 28 A 1 1 0 0 0 64.941406 29 A 1 1 0 0 0 65.941406 30 A 1 1 0 0 0 66.941406 29 A 1 1 0 0 0 65.941406 28 z M 13 29 A 1 1 0 0 0 12 30 A 1 1 0 0 0 13 31 A 1 1 0 0 0 14 30 A 1 1 0 0 0 13 29 z M 65.941406 32 A 1 1 0 0 0 64.941406 33 A 1 1 0 0 0 65.941406 34 A 1 1 0 0 0 66.941406 33 A 1 1 0 0 0 65.941406 32 z M 13 33 A 1 1 0 0 0 12 34 A 1 1 0 0 0 13 35 A 1 1 0 0 0 14 34 A 1 1 0 0 0 13 33 z M 65.941406 36 A 1 1 0 0 0 64.941406 37 A 1 1 0 0 0 65.941406 38 A 1 1 0 0 0 66.941406 37 A 1 1 0 0 0 65.941406 36 z M 13 37 A 1 1 0 0 0 12 38 A 1 1 0 0 0 13 39 A 1 1 0 0 0 14 38 A 1 1 0 0 0 13 37 z M 65.941406 40 A 1 1 0 0 0 64.941406 41 A 1 1 0 0 0 65.941406 42 A 1 1 0 0 0 66.941406 41 A 1 1 0 0 0 65.941406 40 z M 13 41 A 1 1 0 0 0 12 42 A 1 1 0 0 0 13 43 A 1 1 0 0 0 14 42 A 1 1 0 0 0 13 41 z M 65.941406 44 A 1 1 0 0 0 64.941406 45 A 1 1 0 0 0 65.941406 46 A 1 1 0 0 0 66.941406 45 A 1 1 0 0 0 65.941406 44 z M 13 45 A 1 1 0 0 0 12 46 A 1 1 0 0 0 13 47 A 1 1 0 0 0 14 46 A 1 1 0 0 0 13 45 z M 29 48 L 29 50 L 59 50 L 59 48 L 29 48 z M 65.941406 48 A 1 1 0 0 0 64.941406 49 A 1 1 0 0 0 65.941406 50 A 1 1 0 0 0 66.941406 49 A 1 1 0 0 0 65.941406 48 z M 65.941406 52 A 1 1 0 0 0 64.941406 53 A 1 1 0 0 0 65.941406 54 A 1 1 0 0 0 66.941406 53 A 1 1 0 0 0 65.941406 52 z M 29 54 L 29 56 L 51 56 L 51 54 L 29 54 z M 65.941406 56 A 1 1 0 0 0 64.941406 57 A 1 1 0 0 0 65.941406 58 A 1 1 0 0 0 66.941406 57 A 1 1 0 0 0 65.941406 56 z M 65.941406 60 A 1 1 0 0 0 64.941406 61 A 1 1 0 0 0 65.941406 62 A 1 1 0 0 0 66.941406 61 A 1 1 0 0 0 65.941406 60 z"/></svg>