<?xml version="1.0"?><svg xmlns="http://www.w3.org/2000/svg"  viewBox="0 0 30 30" width="50px" height="50px">    <path d="M 22.753906 4.8339844 A 1.0001 1.0001 0 0 0 22.101562 6.6074219 C 24.485995 8.6267119 26 11.62829 26 15 C 26 18.37171 24.485995 21.373288 22.101562 23.392578 A 1.0001 1.0001 0 1 0 23.392578 24.919922 C 26.206146 22.537212 28 18.97229 28 15 C 28 11.02771 26.206146 7.4627881 23.392578 5.0800781 A 1.0001 1.0001 0 0 0 22.753906 4.8339844 z M 7.2167969 4.8359375 A 1.0001 1.0001 0 0 0 6.6074219 5.0800781 C 3.7938539 7.4627881 2 11.02771 2 15 C 2 18.97229 3.7938539 22.537212 6.6074219 24.919922 A 1.0001 1.0001 0 1 0 7.8984375 23.392578 C 5.5140055 21.373288 4 18.37171 4 15 C 4 11.62829 5.5140055 8.6267119 7.8984375 6.6074219 A 1.0001 1.0001 0 0 0 7.2167969 4.8359375 z M 20.171875 7.8867188 A 1.0001 1.0001 0 0 0 19.519531 9.6582031 C 21.03694 10.943444 22 12.852381 22 15 C 22 17.147619 21.035449 19.055287 19.517578 20.341797 A 1.000455 1.000455 0 1 0 20.8125 21.867188 C 22.758629 20.217697 24 17.748381 24 15 C 24 12.251619 22.757139 9.7815712 20.810547 8.1328125 A 1.0001 1.0001 0 0 0 20.171875 7.8867188 z M 9.7988281 7.8886719 A 1.0001 1.0001 0 0 0 9.1875 8.1328125 C 7.2413712 9.7823027 6 12.251619 6 15 C 6 17.748381 7.2428614 20.218429 9.1894531 21.867188 A 1.0001 1.0001 0 1 0 10.480469 20.341797 C 8.9630602 19.056556 8 17.147619 8 15 C 8 12.852381 8.9645505 10.944713 10.482422 9.6582031 A 1.0001 1.0001 0 0 0 9.7988281 7.8886719 z M 12.390625 10.951172 A 1.0001 1.0001 0 0 0 11.78125 11.197266 C 10.708264 12.106702 10 13.4699 10 15 C 10 16.5301 10.708264 17.893298 11.78125 18.802734 A 1.0001 1.0001 0 1 0 13.074219 17.277344 C 12.415205 16.71878 12 15.9179 12 15 C 12 14.0821 12.415205 13.28122 13.074219 12.722656 A 1.0001 1.0001 0 0 0 12.390625 10.951172 z M 17.578125 10.951172 A 1.0001 1.0001 0 0 0 16.925781 12.722656 C 17.584795 13.28122 18 14.0821 18 15 C 18 15.9179 17.584795 16.71878 16.925781 17.277344 A 1.0001 1.0001 0 1 0 18.21875 18.802734 C 19.291736 17.893298 20 16.5301 20 15 C 20 13.4699 19.291736 12.106702 18.21875 11.197266 A 1.0001 1.0001 0 0 0 17.578125 10.951172 z M 15 14 C 14.448 14 14 14.448 14 15 C 14 15.552 14.448 16 15 16 C 15.552 16 16 15.552 16 15 C 16 14.448 15.552 14 15 14 z"/></svg>